# xmcd CD database file
#
# Track frame offsets:
#	150
#	33467
#	55282
#
# Disc length: 934 seconds
#
# Revision: 0
# Processed by: cddbd v1.5.1PL2 Copyright (c) Steve Scherf et al.
# Submitted via: CDex 1.51
#
DISCID=2103a403
DTITLE=八桜はづき（薗崎未恵） - ハッピー☆レッスンTHE TV第3巻 プチ☆キャラクターCD　八桜はづき
DYEAR=1900
DGENRE=アニメ
TTITLE0=八桜はづきのダイナマイトレッスンAパート
TTITLE1=LOVE GOES ON
TTITLE2=八桜はづきのダイナマイトレッスンBパート
EXTD=
EXTT0=
EXTT1=
EXTT2=
PLAYORDER=
